<svg xmlns="http://www.w3.org/2000/svg" viewBox="0 0 512 512">  
  <!-- Horizontally centered B shape with transform -->
  <g transform="translate(80, 0) scale(32)">
    <path 
      d="M4,3 C6.5,3 8,4 8,5.5 C8,6.5 7.5,7 7,7.5 C8,8 8.5,9 8.5,10 C8.5,12 7,13.5 4,13.5 L3,13.5 L3,3 L4,3 Z" 
      fill="#2a9d8f" 
      stroke="#e76f51" 
      stroke-width="0.75" 
    />
    
    <!-- Inner sections -->
    <path 
      d="M4,4.25 L4,6 C5,6 5.75,5.75 5.75,5.25 C5.75,4.75 5.25,4.25 4,4.25 Z" 
      fill="#f4a261" 
    />
    <path 
      d="M4,8.5 L4,12 C5.25,12 6,11 6,10.25 C6,9.25 5.25,8.5 4,8.5 Z" 
      fill="#f4a261" 
    />
  </g>
</svg>