<svg xmlns="http://www.w3.org/2000/svg" viewBox="0 0 500 500" width="500" height="500"><path d="m287.365 197.542 -76.076 6.682a43.49 43.49 0 0 1 32.442 -25.389c17.147 -3.088 34.242 4.628 43.635 18.688zM123.598 125.86l14.547 84.806 25.019 -2.204 -14.964 -86.99a77.7 77.7 0 0 0 -16.757 -35.997l-30.55 5.389 0.689 0.468a52.98 52.98 0 0 1 21.99 34.528zm-45.136 72.053c0 4.693 1.898 9.003 5.35 12.149a16.25 16.25 0 0 0 12.578 4.258l26.754 -2.34 -6.169 -35.997 -25.688 5.837a16.38 16.38 0 0 0 -12.831 16.075zm14.547 -94.276a38.35 38.35 0 0 0 -28.555 -6.331l-0.234 0.039h-0.078a38.22 38.22 0 0 0 -24.668 15.743 38.16 38.16 0 0 0 -6.949 21.21l74.269 -13.104a38.03 38.03 0 0 0 -13.793 -17.537zm226.642 -12.363 17.459 101.901 24.928 -2.191 -17.732 -104.059a38.16 38.16 0 0 0 -15.782 -24.824 38.1 38.1 0 0 0 -28.672 -6.351c12.012 8.632 17.498 22.484 19.799 35.529zm-156.663 27.638a92.95 92.95 0 0 0 -14.885 -36.368l108.05 -19.078h0.078c29.413 -5.233 43.966 3.907 48.633 30.368l17.245 100.646 -18.48 1.619c-11.284 -23.199 -36.875 -36.641 -62.517 -32.032 -22.399 3.907 -40.034 20.059 -46.209 41.6l-16.757 1.463 -15.158 -88.238zm43.277 2.028a27.495 27.495 0 0 0 27.008 22.698q2.379 0.007 4.784 -0.429a27.3 27.3 0 0 0 17.732 -11.291 27.3 27.3 0 0 0 4.55 -20.508 27.476 27.476 0 0 0 -31.798 -22.263 27.495 27.495 0 0 0 -22.263 31.798zm29.179 7.482a12.35 12.35 0 0 0 8.047 -5.116 12.35 12.35 0 0 0 2.067 -9.302 12.45 12.45 0 0 0 -14.43 -10.075 12.45 12.45 0 0 0 -10.101 14.411c1.196 6.76 7.703 11.349 14.417 10.101zm147.849 60.704c0.137 -0.02 0.234 -0.098 0.371 -0.117l4.498 -0.397v-58.851c0 -3.77 -1.703 -7.287 -4.648 -9.653a12.22 12.22 0 0 0 -10.433 -2.379l-7.989 1.814 11.954 70.116 6.273 -0.546z" fill="#4CAF50"/><path d="M459.706 258.102h-10.251v16.406l7.3 -0.644a9.666 9.666 0 0 0 8.749 -9.529v-0.429a5.83 5.83 0 0 0 -5.818 -5.818zm-84.273 38.012v24.843l79.723 -7.072a11.33 11.33 0 0 0 10.348 -11.232v-15.717a25.4 25.4 0 0 1 -7.423 1.898l-82.674 7.3zm-6.838 40.508 65.858 -5.837v70.447c0 6.422 -4.823 11.7 -11.213 12.285L94.47 443.833a16.25 16.25 0 0 1 -12.623 -4.238 16.25 16.25 0 0 1 -5.369 -12.188V223.769a31.53 31.53 0 0 0 19.24 4.57l298.617 -26.247c0.15 -0.02 0.273 -0.098 0.41 -0.117l26.293 -2.327a12.16 12.16 0 0 1 9.412 3.198 12.29 12.29 0 0 1 4.004 9.107v63.908l-67.191 5.941a7.5 7.5 0 0 0 -6.838 7.462v39.897a7.514 7.514 0 0 0 7.501 7.501q0.319 0.013 0.663 -0.033zm11.7 -100.763a1.755 1.755 0 0 0 1.736 1.599h0.163l19.923 -1.755a1.736 1.736 0 0 0 1.58 -1.898 1.69 1.69 0 0 0 -1.898 -1.58l-19.923 1.755a1.736 1.736 0 0 0 -1.58 1.898zM131.267 257.81a1.755 1.755 0 0 0 1.736 1.606h0.163l19.923 -1.755a1.736 1.736 0 0 0 1.58 -1.898c-0.078 -0.949 -0.839 -1.638 -1.898 -1.58l-19.923 1.762a1.736 1.736 0 0 0 -1.58 1.898zm23.498 147.817a1.755 1.755 0 0 0 -1.918 -1.586l-19.923 1.84a1.755 1.755 0 0 0 -1.586 1.911 1.755 1.755 0 0 0 1.742 1.586h0.156l19.923 -1.833a1.755 1.755 0 0 0 1.586 -1.918zm26.312 -152.204a1.736 1.736 0 0 0 1.736 1.599h0.156l19.923 -1.755c0.975 -0.078 1.677 -0.943 1.599 -1.898s-0.917 -1.716 -1.898 -1.599l-19.923 1.762a1.755 1.755 0 0 0 -1.599 1.898m23.478 147.615a1.755 1.755 0 0 0 -1.918 -1.586l-19.923 1.84a1.755 1.755 0 0 0 -1.586 1.911 1.755 1.755 0 0 0 1.742 1.586h0.156l19.923 -1.833a1.755 1.755 0 0 0 1.586 -1.918zm26.325 -151.99a1.755 1.755 0 0 0 1.742 1.599h0.156l19.923 -1.755c0.975 -0.078 1.677 -0.943 1.599 -1.898s-0.897 -1.677 -1.898 -1.58l-19.923 1.762a1.736 1.736 0 0 0 -1.586 1.898zm23.459 147.401a1.78 1.78 0 0 0 -1.918 -1.586l-19.923 1.84a1.755 1.755 0 0 0 -1.586 1.911 1.755 1.755 0 0 0 1.742 1.586h0.156l19.923 -1.833a1.755 1.755 0 0 0 1.586 -1.918zm26.351 -151.801a1.755 1.755 0 0 0 1.736 1.606h0.156l19.923 -1.749a1.736 1.736 0 0 0 1.58 -1.898 1.8 1.8 0 0 0 -1.898 -1.58l-19.923 1.762a1.755 1.755 0 0 0 -1.599 1.898zm23.433 147.212c-0.078 -0.962 -0.982 -1.638 -1.918 -1.586l-19.923 1.84a1.755 1.755 0 0 0 -1.586 1.911 1.755 1.755 0 0 0 1.742 1.586h0.156l19.923 -1.833a1.755 1.755 0 0 0 1.586 -1.918zm26.364 -151.619a1.755 1.755 0 0 0 1.742 1.599h0.156l19.923 -1.755a1.749 1.749 0 1 0 -0.299 -3.497l-19.916 1.762a1.755 1.755 0 0 0 -1.599 1.898m23.42 147.03c-0.078 -0.962 -1.001 -1.638 -1.918 -1.586l-19.923 1.84a1.755 1.755 0 0 0 -1.586 1.911 1.755 1.755 0 0 0 1.742 1.586h0.156l19.923 -1.833a1.755 1.755 0 0 0 1.586 -1.918zm26.384 -2.438a1.755 1.755 0 0 0 1.742 1.58h0.156l19.923 -1.833a1.755 1.755 0 0 0 1.586 -1.918 1.755 1.755 0 0 0 -1.918 -1.58l-19.923 1.833a1.755 1.755 0 0 0 -1.586 1.918zM78.455 197.912c0 4.693 1.898 9.003 5.35 12.149a16.25 16.25 0 0 0 12.578 4.258l26.761 -2.34 -6.175 -35.997 -25.688 5.837a16.38 16.38 0 0 0 -12.831 16.075zm305.357 -8.515c0.137 -0.02 0.234 -0.098 0.371 -0.117l4.498 -0.397v-58.851a12.35 12.35 0 0 0 -4.648 -9.653A12.22 12.22 0 0 0 373.6 118l-7.989 1.814 11.954 70.116 6.273 -0.546z" fill="#8B4513"/></svg>