<svg xmlns="http://www.w3.org/2000/svg" version="1.1" xmlns:xlink="http://www.w3.org/1999/xlink" xmlns:svgjs="http://svgjs.dev/svgjs" width="110" height="135"><svg xmlns="http://www.w3.org/2000/svg" version="1.1" viewBox="-5.0 -10.0 110.0 135.0">
  <!-- Currency Note (green) -->
  <path d="m57.473 39.508-15.215 1.3359c1.1602-2.6367 3.543-4.5625 6.4883-5.0781 3.4297-0.61719 6.8477 0.92578 8.7266 3.7383zm-32.754-14.336 2.9102 16.961 5.0039-0.44141-2.9922-17.398c-0.46875-2.6562-1.6367-5.125-3.3516-7.1992l-6.1094 1.0781c0.046874 0.03125 0.09375 0.0625 0.13672 0.09375 2.3398 1.6367 3.9023 4.0859 4.3984 6.9062zm-9.0273 14.41c0 0.9375 0.37891 1.8008 1.0703 2.4297 0.6875 0.63281 1.582 0.93359 2.5156 0.85156l5.3516-0.46875-1.2344-7.1992-5.1367 1.168c-1.5117 0.34375-2.5664 1.6641-2.5664 3.2148zm2.9102-18.855c-1.6719-1.1641-3.6992-1.6094-5.7109-1.2656l-0.046875 0.007812h-0.015625c-2.0078 0.35938-3.7578 1.4766-4.9336 3.1484-0.88672 1.2656-1.3594 2.7305-1.3906 4.2422l14.855-2.6211c-0.54297-1.4102-1.4922-2.625-2.7578-3.5078zm45.328-2.4727 3.4922 20.379 4.9844-0.4375-3.5469-20.812c-0.35547-2.0234-1.4766-3.7891-3.1562-4.9648-1.6758-1.1758-3.7148-1.625-5.7344-1.2695 2.4023 1.7266 3.5 4.4961 3.9609 7.1055zm-31.332 5.5273c-0.46094-2.6211-1.4883-5.0938-2.9766-7.2734l21.609-3.8164h0.015625c5.8828-1.0469 8.793 0.78125 9.7266 6.0742l3.4492 20.129-3.6953 0.32422c-2.2578-4.6406-7.375-7.3281-12.504-6.4062-4.4805 0.78125-8.0078 4.0117-9.2422 8.3203l-3.3516 0.29297-3.0312-17.648zm8.6562 0.40625c0.46875 2.6602 2.7891 4.5391 5.4023 4.5391 0.31641 0 0.63672-0.027343 0.95703-0.085937 1.4453-0.25391 2.7031-1.0547 3.5469-2.2578 0.83984-1.2031 1.1641-2.6562 0.91016-4.1016-0.52734-2.9805-3.3711-4.9766-6.3594-4.4531-2.9805 0.52734-4.9766 3.3789-4.4531 6.3594zm5.8359 1.4961c0.65625-0.11719 1.2266-0.47656 1.6094-1.0234 0.38281-0.54688 0.52734-1.207 0.41406-1.8594-0.21094-1.207-1.2656-2.0547-2.4531-2.0547-0.14453 0-0.28906 0.011718-0.43359 0.039062-1.3516 0.23828-2.2578 1.5312-2.0195 2.8828 0.23828 1.3516 1.5391 2.2695 2.8828 2.0195zm29.57 12.141c0.027344-0.003907 0.046875-0.019531 0.074219-0.023438l0.89844-0.078125v-11.77c0-0.75391-0.33984-1.457-0.92969-1.9297-0.58984-0.46875-1.3438-0.64844-2.0859-0.47656l-1.5977 0.36328 2.3906 14.023 1.2539-0.10938z" fill="#4CAF50"></path>
  
  <!-- Wallet body (brown) -->
  <path d="m91.941 51.621h-2.0508v3.2812l1.4609-0.12891c0.98047-0.089844 1.75-0.92578 1.75-1.9062v-0.085938c0-0.64062-0.52344-1.1641-1.1641-1.1641zm-16.855 7.6016v4.9688l15.945-1.4141c1.1641-0.097656 2.0703-1.082 2.0703-2.2461v-3.1445c-0.46094 0.19922-0.96094 0.32812-1.4844 0.37891l-16.535 1.4609zm-1.3672 8.1016 13.172-1.168v14.09c0 1.2852-0.96484 2.3398-2.2422 2.457l-65.754 6.0625c-0.92969 0.089844-1.832-0.21484-2.5234-0.84766-0.69531-0.63281-1.0742-1.5-1.0742-2.4375v-40.727c0.98828 0.60938 2.1328 0.9375 3.3008 0.9375 0.18359 0 0.36719-0.007812 0.54687-0.023437l59.723-5.25c0.03125-0.003906 0.054687-0.019531 0.082031-0.023437l5.2578-0.46484c0.68359-0.066406 1.3672 0.16406 1.8828 0.64062 0.51562 0.47266 0.80078 1.1211 0.80078 1.8203v12.781l-13.438 1.1875c-0.77344 0.070313-1.3672 0.71875-1.3672 1.4922v7.9805c0 0.42187 0.17578 0.82031 0.48828 1.1055 0.27734 0.25391 0.64062 0.39453 1.0117 0.39453 0.042969 0 0.085937 0 0.13281-0.007813zm2.3398-20.152c0.015625 0.17969 0.16797 0.32031 0.34766 0.32031h0.03125l3.9844-0.35156c0.19141-0.015625 0.33594-0.1875 0.31641-0.37891-0.015624-0.19141-0.16797-0.33203-0.37891-0.31641l-3.9844 0.35156c-0.19141 0.015625-0.33594 0.1875-0.31641 0.37891zm-49.805 4.3906c0.015624 0.17969 0.16797 0.32031 0.34766 0.32031h0.03125l3.9844-0.35156c0.19141-0.015625 0.33594-0.1875 0.31641-0.37891-0.015625-0.19141-0.16797-0.32812-0.37891-0.31641l-3.9844 0.35156c-0.19141 0.015625-0.33594 0.1875-0.31641 0.37891zm4.6992 29.562c-0.015625-0.19141-0.18359-0.32812-0.38281-0.31641l-3.9844 0.36719c-0.19141 0.015624-0.33594 0.1875-0.31641 0.38281 0.015626 0.17969 0.16797 0.31641 0.34766 0.31641h0.03125l3.9844-0.36719c0.19141-0.015625 0.33594-0.1875 0.31641-0.38281zm5.2617-30.441c0.015625 0.18359 0.16797 0.32031 0.34766 0.32031h0.03125l3.9844-0.35156c0.19531-0.015625 0.33594-0.1875 0.32031-0.37891s-0.18359-0.34375-0.37891-0.32031l-3.9844 0.35156c-0.19531 0.015625-0.33594 0.1875-0.32031 0.37891zm4.6953 29.523c-0.015626-0.19141-0.1875-0.32813-0.38281-0.31641l-3.9844 0.36719c-0.19141 0.015625-0.33594 0.1875-0.31641 0.38281 0.015625 0.17969 0.16797 0.31641 0.34766 0.31641h0.03125l3.9844-0.36719c0.19141-0.015625 0.33594-0.1875 0.31641-0.38281zm5.2656-30.398c0.015626 0.17969 0.16797 0.32031 0.34766 0.32031h0.03125l3.9844-0.35156c0.19531-0.015625 0.33594-0.1875 0.32031-0.37891s-0.17969-0.33594-0.37891-0.31641l-3.9844 0.35156c-0.19141 0.015625-0.33594 0.1875-0.31641 0.37891zm4.6914 29.48c-0.015625-0.19141-0.19141-0.32812-0.38281-0.31641l-3.9844 0.36719c-0.19141 0.015625-0.33594 0.1875-0.31641 0.38281 0.015625 0.17969 0.16797 0.31641 0.34766 0.31641h0.03125l3.9844-0.36719c0.19141-0.015625 0.33594-0.1875 0.31641-0.38281zm5.2695-30.359c0.015625 0.17969 0.16797 0.32031 0.34766 0.32031h0.03125l3.9844-0.35156c0.19141-0.015625 0.33594-0.1875 0.31641-0.37891-0.015626-0.19141-0.19531-0.32813-0.37891-0.31641l-3.9844 0.35156c-0.19531 0.015625-0.33594 0.1875-0.32031 0.37891zm4.6875 29.441c-0.015625-0.19141-0.19531-0.32812-0.38281-0.31641l-3.9844 0.36719c-0.19141 0.015625-0.33594 0.1875-0.31641 0.38281 0.015625 0.17969 0.16797 0.31641 0.34766 0.31641h0.03125l3.9844-0.36719c0.19141-0.015624 0.33594-0.1875 0.31641-0.38281zm5.2734-30.324c0.015624 0.18359 0.16797 0.32031 0.34766 0.32031h0.03125l3.9844-0.35156c0.19531-0.015625 0.33594-0.1875 0.32031-0.37891s-0.19141-0.33984-0.37891-0.32031l-3.9844 0.35156c-0.19531 0.015625-0.33594 0.1875-0.32031 0.37891zm4.6836 29.406c-0.015625-0.19141-0.19922-0.32812-0.38281-0.31641l-3.9844 0.36719c-0.19141 0.015626-0.33594 0.1875-0.31641 0.38281 0.015624 0.17969 0.16797 0.31641 0.34766 0.31641h0.03125l3.9844-0.36719c0.19141-0.015625 0.33594-0.1875 0.31641-0.38281zm5.2773-0.48828c0.015625 0.17969 0.16797 0.31641 0.34766 0.31641h0.03125l3.9844-0.36719c0.19141-0.015625 0.33594-0.1875 0.31641-0.38281-0.019531-0.19141-0.18359-0.32812-0.38281-0.31641l-3.9844 0.36719c-0.19141 0.015624-0.33594 0.1875-0.31641 0.38281z" fill="#8B4513"></path>

<!-- More wallet parts (brown) -->
<path d="m15.691 39.582c0 0.9375 0.37891 1.8008 1.0703 2.4297 0.6875 0.63281 1.582 0.93359 2.5156 0.85156l5.3516-0.46875-1.2344-7.1992-5.1367 1.168c-1.5117 0.34375-2.5664 1.6641-2.5664 3.2148zm2.9102-18.855c-1.6719-1.1641-3.6992-1.6094-5.7109z" fill="#8B4513"></path>

<path d="m76.762 37.879c0.027344-0.003907 0.046875-0.019531 0.074219-0.023438l0.89844-0.078125v-11.77c0-0.75391-0.33984-1.457-0.92969-1.9297-0.58984-0.46875-1.3438-0.64844-2.0859-0.47656l-1.5977 0.36328 2.3906 14.023 1.2539-0.10938z" fill="#8B4513"></path>
</svg><style>@media (prefers-color-scheme: light) { :root { filter: none; } }
@media (prefers-color-scheme: dark) { :root { filter: none; } }
</style></svg>